# xmcd CD database file
#
# Track frame offsets:
#	150
#	17162
#	37575
#	54765
#	76487
#	98802
#	122022
#	137310
#	151185
#	166395
#	187290
#	205552
#	223980
#
# Disc length: 3147 seconds
#
# Revision: 3
# Processed by: cddbd v1.5.2PL0 Copyright (c) Steve Scherf et al.
# Submitted via: CDex 1.51
#
DISCID=a10c490d
DTITLE=Jimmy Rogers - Ludella
DYEAR=1900
DGENRE=Blues
TTITLE0=You're Sweet
TTITLE1=Rock This House
TTITLE2=Can't Sleep For Worrying
TTITLE3=Why Did You Do It?
TTITLE4=Sloppy Drunk
TTITLE5=Gold Tailed Bird
TTITLE6=Chicago Bound
TTITLE7=Monkey Faced Woman
TTITLE8=Ludella
TTITLE9=Got My Mojo Working
TTITLE10=Why Did You Do It? (Alternate)
TTITLE11=You're Sweet (Alternate)
TTITLE12=Naptown
EXTD=ANT 0012\n\nJimmy Rogers:  vocal and guitar\nPinetop Perkins:  piano\nKim Wilson:  harmonica\nDerek O'Brien:  guitar\nBob Stoger:  bass\nTed Harvey:  drums\n\nSubmitted 6/27/97\n[Jmccoy@efn.org]
EXTT0=
EXTT1=
EXTT2=
EXTT3=
EXTT4=
EXTT5=
EXTT6=
EXTT7=
EXTT8=
EXTT9=
EXTT10=
EXTT11=
EXTT12=
PLAYORDER=
